<?xml version="1.0" encoding="UTF-8" standalone="no"?>
<!DOCTYPE svg PUBLIC "-//W3C//DTD SVG 1.1//EN" "http://www.w3.org/Graphics/SVG/1.1/DTD/svg11.dtd">
<svg width="456" height="456" viewBox="0 0 456 456" version="1.1" xmlns="http://www.w3.org/2000/svg" xmlns:xlink="http://www.w3.org/1999/xlink" xml:space="preserve" xmlns:serif="http://www.serif.com/" style="fill-rule:evenodd;clip-rule:evenodd;stroke-linejoin:round;stroke-miterlimit:2;">
     <path fill="#fff" fill-rule="evenodd" d="M7.04 6.528C2.347 10.838 0 16.256 0 22.784c0 4.096.917 7.893 2.752 11.392 1.835 3.456 4.608 6.315 8.32 8.576C14.784 44.971 19.093 46.08 24 46.08c4.95 0 9.067-1.877 12.352-5.632.299-.299.448-.64.448-1.024 0-.597-.299-1.216-.896-1.856-.597-.64-1.216-.96-1.856-.96-.341 0-.747.235-1.216.704-2.347 2.688-5.397 4.032-9.152 4.032-5.76 0-10.347-1.877-13.76-5.632C6.507 31.957 4.8 27.627 4.8 22.72c0-4.779 1.728-8.96 5.184-12.544 3.499-3.627 8.043-5.44 13.632-5.44 3.072 0 5.632.896 7.68 2.688a1.48 1.48 0 0 0 1.088.448c.597 0 1.173-.277 1.728-.832.555-.597.832-1.237.832-1.92 0-.47-.17-.853-.512-1.152C31.147 1.323 27.584 0 23.744 0c-6.4 0-11.968 2.176-16.704 6.528ZM43.37 20.16c-1.92 2.645-2.88 5.803-2.88 9.472 0 4.608 1.813 8.576 5.44 11.904 3.626 3.285 7.978 4.928 13.056 4.928 5.162 0 9.343-1.643 12.544-4.928 3.2-3.328 4.8-7.317 4.8-11.968 0-4.907-1.814-8.96-5.44-12.16-3.585-3.243-7.51-4.864-11.776-4.864-3.03 0-5.931.597-8.704 1.792-2.731 1.195-5.078 3.136-7.04 5.824Zm6.016 17.856c-2.774-2.517-4.16-5.29-4.16-8.32 0-2.987 1.194-5.803 3.584-8.448 2.431-2.645 5.823-3.968 10.175-3.968 3.712 0 6.742 1.301 9.088 3.904 2.347 2.603 3.52 5.397 3.52 8.384 0 3.072-1.237 5.867-3.712 8.384-2.431 2.517-5.376 3.776-8.831 3.776-3.67 0-6.891-1.237-9.664-3.712ZM82.52 15.36v28.352c0 1.195.79 1.792 2.368 1.792.64 0 1.195-.15 1.664-.448.47-.341.704-.79.704-1.344v-17.6c.896-2.261 2.39-4.245 4.48-5.952 2.133-1.707 4.33-2.56 6.592-2.56 2.347 0 4.267.661 5.76 1.984 1.493 1.323 2.24 3.541 2.24 6.656v17.728c0 1.195.747 1.792 2.24 1.792.64 0 1.195-.15 1.664-.448.512-.341.768-.79.768-1.344V32.704c.043-2.56.064-4.672.064-6.336 0-1.323.235-2.517.704-3.584.469-1.067 1.067-1.899 1.792-2.496a10.43 10.43 0 0 1 2.432-1.6c.939-.427 1.792-.704 2.56-.832.811-.17 1.6-.256 2.368-.256 5.248 0 7.872 2.88 7.872 8.64v17.728c0 1.195.789 1.792 2.368 1.792.597 0 1.131-.15 1.6-.448.469-.341.704-.79.704-1.344V32c.043-3.84.064-5.952.064-6.336 0-4.01-1.152-7.147-3.456-9.408-2.304-2.261-5.44-3.392-9.408-3.392-2.133 0-4.245.49-6.336 1.472a13.131 13.131 0 0 0-5.056 4.224c-2.219-3.797-5.952-5.696-11.2-5.696-1.92 0-3.861.576-5.824 1.728-1.963 1.152-3.627 2.539-4.992 4.16V15.36c0-.555-.235-.981-.704-1.28-.427-.299-.96-.448-1.6-.448-1.621 0-2.432.576-2.432 1.728Zm58.314-.064v44.48c0 .555.213.981.64 1.28.469.299 1.024.448 1.664.448 1.621 0 2.432-.576 2.432-1.728V42.048c2.603 2.347 5.675 3.52 9.216 3.52 3.669 0 7.168-.875 10.496-2.624 3.371-1.75 6.101-4.203 8.192-7.36 2.091-3.2 3.136-6.699 3.136-10.496 0-3.243-1.28-6.059-3.84-8.448-2.517-2.432-5.589-3.648-9.216-3.648-7.936 0-13.931 3.093-17.984 9.28v-6.976c0-1.195-.789-1.792-2.368-1.792-.64 0-1.195.17-1.664.512-.469.299-.704.725-.704 1.28Zm7.744 23.488c-2.048-1.323-3.072-3.285-3.072-5.888 0-2.133.875-4.395 2.624-6.784 1.749-2.432 3.947-4.437 6.592-6.016 2.688-1.621 5.227-2.432 7.616-2.432 2.56 0 4.736.64 6.528 1.92 1.835 1.28 2.752 3.37 2.752 6.272 0 2.816-.917 5.419-2.752 7.808-1.792 2.347-3.968 4.117-6.528 5.312-2.56 1.195-5.077 1.792-7.552 1.792-2.048 0-4.117-.661-6.208-1.984Zm39.63-19.712c-4.479 4.139-6.72 9.067-6.72 14.784 0 3.115 1.174 5.93 3.521 8.448 2.346 2.475 5.056 3.712 8.128 3.712 3.327 0 6.549-1.003 9.664-3.008 3.157-2.005 6.463-5.248 9.92-9.728v10.816c0 1.195.704 1.792 2.112 1.792.64 0 1.215-.15 1.728-.448.554-.341.832-.79.832-1.344l.063-16.768c0-3.755-1.365-7.104-4.095-10.048-2.731-2.944-6.038-4.416-9.92-4.416-5.675 0-10.753 2.07-15.233 6.208Zm.448 20.48c-1.706-1.28-2.56-3.136-2.56-5.568 0-4.395 1.707-8.256 5.12-11.584 3.414-3.37 7.211-5.056 11.393-5.056.597 0 1.344.128 2.239.384.897.213 1.878.555 2.944 1.024 1.11.47 2.027 1.216 2.752 2.24.769.981 1.153 2.112 1.153 3.392 0 1.536-.961 3.67-2.881 6.4-1.877 2.688-4.245 5.141-7.104 7.36-2.858 2.176-5.397 3.264-7.616 3.264-1.919 0-3.733-.619-5.44-1.856Zm35.991-24.32V43.84c0 .555.213.981.64 1.28.469.299 1.024.448 1.664.448 1.621 0 2.431-.576 2.431-1.728V28.416c1.281-3.157 3.542-5.76 6.785-7.808 3.285-2.09 6.485-3.136 9.599-3.136 2.304 0 4.523.81 6.657 2.432 2.175 1.621 3.263 3.947 3.263 6.976v16.832c0 1.195.79 1.792 2.368 1.792.641 0 1.195-.15 1.664-.448.47-.341.705-.79.705-1.344v-11.52c.042-3.541.063-5.504.063-5.888 0-4.01-1.365-7.253-4.096-9.728-2.687-2.517-6.037-3.776-10.047-3.776-3.115 0-6.187.683-9.217 2.048-3.029 1.323-5.61 3.136-7.744 5.44v-5.056c0-1.152-.81-1.728-2.431-1.728-.64 0-1.195.15-1.664.448-.427.299-.64.725-.64 1.28Zm42.678-.064v17.28c0 3.883 1.6 7.04 4.8 9.472 3.2 2.39 6.891 3.584 11.072 3.584 6.016 0 10.965-2.219 14.848-6.656v7.424c0 2.347-.747 4.373-2.24 6.08-1.493 1.75-3.2 2.965-5.12 3.648-1.877.725-3.776 1.088-5.696 1.088-2.347 0-4.736-.384-7.168-1.152-2.432-.725-3.648-1.77-3.648-3.136 0-.597-.256-1.088-.768-1.472-.512-.384-1.109-.576-1.792-.576-.64 0-1.195.17-1.664.512-.427.384-.64.917-.64 1.6.043 2.73 1.728 4.907 5.056 6.528 3.371 1.621 6.805 2.432 10.304 2.432 2.048 0 4.117-.341 6.208-1.024a21.377 21.377 0 0 0 5.824-2.944c1.792-1.28 3.243-2.987 4.352-5.12 1.152-2.09 1.728-4.395 1.728-6.912V15.168c0-.555-.235-.981-.704-1.28-.427-.299-.96-.448-1.6-.448-1.621 0-2.432.576-2.432 1.728v15.36c-1.109 3.115-3.008 5.61-5.696 7.488-2.688 1.877-5.547 2.816-8.576 2.816-1.067 0-2.24-.15-3.52-.448a22.74 22.74 0 0 1-3.84-1.472c-1.28-.64-2.347-1.579-3.2-2.816-.853-1.237-1.28-2.645-1.28-4.224V15.168c0-1.195-.789-1.792-2.368-1.792-.597 0-1.131.17-1.6.512-.427.299-.64.725-.64 1.28ZM81.433 81.435v41.28c0 1.195.789 1.792 2.368 1.792.64 0 1.194-.149 1.664-.448.469-.341.704-.789.704-1.344 2.474 1.579 5.354 2.368 8.64 2.368 4.906 0 9.216-1.109 12.928-3.328 3.712-2.261 6.485-5.12 8.32-8.576 1.834-3.499 2.752-7.296 2.752-11.392 0-6.528-2.368-11.947-7.104-16.256-4.694-4.352-10.24-6.528-16.64-6.528-2.902 0-5.867.981-8.896 2.944v-.512c0-.555-.235-.981-.704-1.28-.427-.299-.96-.448-1.6-.448-1.622 0-2.432.576-2.432 1.728Zm13.696 38.912c-3.627 0-6.614-1.259-8.96-3.776V86.875c2.986-2.09 5.994-3.136 9.024-3.136 5.589 0 10.112 1.813 13.568 5.44 3.498 3.584 5.248 7.765 5.248 12.544 0 4.907-1.707 9.237-5.12 12.992-3.414 3.755-8 5.632-13.76 5.632Zm30.793-20.032c-1.195 2.133-1.792 4.565-1.792 7.296 0 4.821 1.685 8.96 5.056 12.416 3.371 3.456 7.68 5.184 12.928 5.184 2.901 0 5.888-.491 8.96-1.472 3.115-1.024 5.205-2.624 6.272-4.8 0-.555-.341-1.088-1.024-1.6-.683-.555-1.323-.832-1.92-.832-.512 0-.853.171-1.024.512-1.195 1.109-2.837 1.963-4.928 2.56-2.048.597-4.032.896-5.952.896-3.627 0-6.677-1.067-9.152-3.2-2.475-2.133-3.947-4.779-4.416-7.936 4.011 1.28 8.235 1.92 12.672 1.92 4.949 0 8.768-1.003 11.456-3.008 2.688-2.005 4.032-4.437 4.032-7.296 0-2.645-1.152-4.864-3.456-6.656-2.304-1.835-5.547-2.752-9.728-2.752-2.347 0-4.651.32-6.912.96a22.673 22.673 0 0 0-6.336 2.752c-1.963 1.237-3.541 2.923-4.736 5.056Zm15.168 6.208c-4.736 0-8.704-.704-11.904-2.112 1.152-2.389 2.859-4.331 5.12-5.824 2.304-1.536 5.163-2.304 8.576-2.304 3.157 0 5.525.448 7.104 1.344 1.621.853 2.432 1.92 2.432 3.2 0 1.451-.96 2.773-2.88 3.968-1.92 1.152-4.736 1.728-8.448 1.728Zm22.573-28.288v44.48c0 1.195.789 1.792 2.368 1.792.64 0 1.195-.149 1.664-.448.469-.341.704-.789.704-1.344v-44.48c0-.555-.235-.981-.704-1.28-.427-.299-.96-.448-1.6-.448-1.621 0-2.432.576-2.432 1.728Zm12.438 16v28.48c0 1.195.789 1.792 2.368 1.792.64 0 1.194-.149 1.664-.448.469-.341.704-.789.704-1.344v-28.48c0-.555-.235-.981-.704-1.28-.427-.299-.96-.448-1.6-.448-1.622 0-2.432.576-2.432 1.728Zm2.432-12.8c-1.622 0-2.432.576-2.432 1.728v1.152c0 1.195.789 1.792 2.368 1.792.64 0 1.194-.15 1.664-.448.469-.341.704-.79.704-1.344v-1.152c0-.555-.235-.981-.704-1.28-.427-.299-.96-.448-1.6-.448Zm8.405 11.776c-.64.47-.96 1.024-.96 1.664 0 .299.043.512.128.64l14.848 26.752c.725 1.493 1.579 2.24 2.56 2.24 1.024 0 1.899-.747 2.624-2.24l14.848-26.752c.085-.128.128-.341.128-.64 0-.64-.32-1.195-.96-1.664-.64-.47-1.28-.704-1.92-.704-.683 0-1.195.32-1.536.96l-13.184 23.36-13.12-23.36c-.341-.64-.853-.96-1.536-.96-.64 0-1.28.235-1.92.704Zm39.109 7.104c-1.195 2.133-1.792 4.565-1.792 7.296 0 4.821 1.685 8.96 5.056 12.416 3.371 3.456 7.68 5.184 12.928 5.184 2.901 0 5.888-.491 8.96-1.472 3.115-1.024 5.205-2.624 6.272-4.8 0-.555-.341-1.088-1.024-1.6-.683-.555-1.323-.832-1.92-.832-.512 0-.853.171-1.024.512-1.195 1.109-2.837 1.963-4.928 2.56-2.048.597-4.032.896-5.952.896-3.627 0-6.677-1.067-9.152-3.2-2.475-2.133-3.947-4.779-4.416-7.936 4.011 1.28 8.235 1.92 12.672 1.92 4.949 0 8.768-1.003 11.456-3.008 2.688-2.005 4.032-4.437 4.032-7.296 0-2.645-1.152-4.864-3.456-6.656-2.304-1.835-5.547-2.752-9.728-2.752-2.347 0-4.651.32-6.912.96a22.673 22.673 0 0 0-6.336 2.752c-1.963 1.237-3.541 2.923-4.736 5.056Zm15.168 6.208c-4.736 0-8.704-.704-11.904-2.112 1.152-2.389 2.859-4.331 5.12-5.824 2.304-1.536 5.163-2.304 8.576-2.304 3.157 0 5.525.448 7.104 1.344 1.621.853 2.432 1.92 2.432 3.2 0 1.451-.96 2.773-2.88 3.968-1.92 1.152-4.736 1.728-8.448 1.728Zm22.509-12.16v28.352c0 1.195.789 1.792 2.368 1.792.64 0 1.195-.149 1.664-.448.469-.341.704-.789.704-1.344v-9.472c1.579-4.992 3.669-9.045 6.272-12.16s5.483-4.672 8.64-4.672c1.365 0 3.136.256 5.312.768.683-.085 1.173-.277 1.472-.576.299-.299.448-.81.448-1.536 0-1.024-.619-1.835-1.856-2.432a28.198 28.198 0 0 0-6.976-.896c-3.285 0-5.931.896-7.936 2.688-1.963 1.792-3.755 4.437-5.376 7.936v-8c0-.555-.235-.981-.704-1.28-.427-.299-.96-.448-1.6-.448-1.621 0-2.432.576-2.432 1.728Zm30.993-.192v17.28c0 3.883 1.6 7.04 4.8 9.472 3.2 2.389 6.89 3.584 11.072 3.584 6.016 0 10.965-2.219 14.848-6.656v7.424c0 2.347-.747 4.373-2.24 6.08-1.494 1.749-3.2 2.965-5.12 3.648-1.878.725-3.776 1.088-5.696 1.088-2.347 0-4.736-.384-7.168-1.152-2.432-.725-3.648-1.771-3.648-3.136 0-.597-.256-1.088-.768-1.472-.512-.384-1.11-.576-1.792-.576-.64 0-1.195.171-1.664.512-.427.384-.64.917-.64 1.6.042 2.731 1.728 4.907 5.056 6.528 3.37 1.621 6.805 2.432 10.304 2.432 2.048 0 4.117-.341 6.208-1.024a21.4 21.4 0 0 0 5.824-2.944c1.792-1.28 3.242-2.987 4.352-5.12 1.152-2.091 1.728-4.395 1.728-6.912V94.171c0-.555-.235-.981-.704-1.28-.427-.299-.96-.448-1.6-.448-1.622 0-2.432.576-2.432 1.728v15.36c-1.11 3.115-3.008 5.611-5.696 7.488-2.688 1.877-5.547 2.816-8.576 2.816-1.067 0-2.24-.149-3.52-.448a22.65 22.65 0 0 1-3.84-1.472c-1.28-.64-2.347-1.579-3.2-2.816-.854-1.237-1.28-2.645-1.28-4.224V94.171c0-1.195-.79-1.792-2.368-1.792a2.65 2.65 0 0 0-1.6.512c-.427.299-.64.725-.64 1.28Z" clip-rule="evenodd"/>
</svg>