<svg xmlns="http://www.w3.org/2000/svg" width="110" height="110" fill="none" viewBox="0 0 110 110">
  <path fill="#6D52DA" fill-rule="evenodd" d="M110 0H0v110h110V0ZM29.233 61h3.142c1.034 0 1.912-.204 2.635-.611a4.037 4.037 0 0 0 1.65-1.76c.378-.766.567-1.68.567-2.74 0-1.054-.187-1.959-.561-2.714a4.003 4.003 0 0 0-1.616-1.745c-.703-.408-1.548-.612-2.536-.612h-3.281V61Zm3.062-1.094h-1.83v-7.994h1.97c.795 0 1.46.16 1.993.482a2.97 2.97 0 0 1 1.203 1.372c.269.594.403 1.301.403 2.123 0 .829-.136 1.543-.408 2.143a3.002 3.002 0 0 1-1.237 1.387c-.554.325-1.252.487-2.094.487Zm8.139.766c.534.325 1.168.487 1.904.487.517 0 .983-.08 1.397-.239a2.933 2.933 0 0 0 1.044-.676c.282-.291.482-.63.602-1.014l-1.134-.318c-.1.265-.24.487-.422.666-.183.176-.4.308-.652.398a2.54 2.54 0 0 1-.835.13c-.474 0-.89-.104-1.248-.31a2.152 2.152 0 0 1-.84-.909c-.18-.364-.279-.8-.296-1.307H45.5v-.498c0-.712-.094-1.312-.283-1.8-.19-.486-.443-.878-.761-1.173a2.918 2.918 0 0 0-1.059-.646 3.62 3.62 0 0 0-1.178-.199c-.69 0-1.293.17-1.81.507-.514.335-.915.802-1.203 1.402-.285.597-.428 1.286-.428 2.069 0 .782.143 1.468.428 2.058a3.27 3.27 0 0 0 1.228 1.372Zm-.477-4.107c.023-.354.112-.689.268-1.004a2.29 2.29 0 0 1 .78-.895c.342-.232.746-.348 1.214-.348.424 0 .792.098 1.103.294.315.195.557.462.726.8.173.338.259.723.259 1.153h-4.35ZM48.458 61V50.818h-1.173V61h1.173Zm2.15-7.636V61h1.172v-7.636h-1.173Zm.004-1.507a.834.834 0 0 0 .592.234.817.817 0 0 0 .586-.234.744.744 0 0 0 .249-.562.744.744 0 0 0-.249-.561.817.817 0 0 0-.586-.234.834.834 0 0 0-.592.234.75.75 0 0 0-.244.561.75.75 0 0 0 .244.562ZM57.35 61l2.824-7.636H58.9l-2.108 6.085h-.08l-2.108-6.085h-1.272L56.157 61h1.193Zm5.396-.328c.534.325 1.169.487 1.905.487.517 0 .982-.08 1.397-.239a2.933 2.933 0 0 0 1.044-.676c.281-.291.482-.63.601-1.014l-1.133-.318c-.1.265-.24.487-.423.666-.182.176-.4.308-.651.398-.249.086-.527.13-.835.13-.474 0-.89-.104-1.248-.31a2.152 2.152 0 0 1-.84-.909c-.18-.364-.28-.8-.296-1.307h5.545v-.498c0-.712-.094-1.312-.283-1.8-.189-.486-.442-.878-.76-1.173a2.918 2.918 0 0 0-1.06-.646 3.62 3.62 0 0 0-1.178-.199c-.69 0-1.292.17-1.81.507-.513.335-.914.802-1.202 1.402-.286.597-.428 1.286-.428 2.069 0 .782.142 1.468.428 2.058a3.27 3.27 0 0 0 1.227 1.372Zm-.476-4.107c.022-.354.111-.689.268-1.004a2.29 2.29 0 0 1 .78-.895c.342-.232.746-.348 1.213-.348.424 0 .792.098 1.104.294.315.195.557.462.726.8.172.338.258.723.258 1.153h-4.35Zm7.327-3.201V61h1.174v-4.832c0-.345.082-.652.248-.92.17-.272.398-.484.686-.636.292-.156.623-.234.995-.234.155 0 .303.011.442.035.143.02.234.034.273.044v-1.193a4.32 4.32 0 0 0-.293-.015c-.13-.003-.237-.005-.323-.005-.457 0-.868.118-1.233.353a1.834 1.834 0 0 0-.756.92h-.08v-1.153h-1.133Zm5.665 10.45c.156.033.334.05.532.05a2.3 2.3 0 0 0 .955-.19c.285-.125.535-.32.75-.581.216-.259.397-.585.543-.98l3.241-8.75H80.01l-2.108 6.086h-.08l-2.107-6.085h-1.273l2.824 7.676-.219.596c-.142.388-.3.668-.472.84a.906.906 0 0 1-.582.294c-.218.02-.47-.007-.755-.08l-.299 1.034c.06.03.168.06.323.09Z" clip-rule="evenodd"/>
</svg>
