<?xml version="1.0" encoding="UTF-8" standalone="no"?>
<!DOCTYPE svg PUBLIC "-//W3C//DTD SVG 1.1//EN" "http://www.w3.org/Graphics/SVG/1.1/DTD/svg11.dtd">
<svg xmlns="http://www.w3.org/2000/svg"   width="76" height="20" fill="none" viewBox="0 0 76 20">
  <path fill="#FFFFFF" d="M5.25 15H.761V.455H5.45c1.41 0 2.618.29 3.622.873 1.004.578 1.773 1.409 2.308 2.493.535 1.08.803 2.372.803 3.878 0 1.515-.27 2.82-.81 3.913a5.77 5.77 0 0 1-2.358 2.514C7.982 14.71 6.727 15 5.25 15Zm-2.727-1.563h2.613c1.203 0 2.2-.231 2.99-.695a4.29 4.29 0 0 0 1.769-1.982c.388-.857.582-1.877.582-3.061 0-1.174-.191-2.185-.575-3.033-.384-.852-.956-1.505-1.719-1.96-.762-.46-1.711-.689-2.848-.689H2.523v11.42Zm16.96 1.79c-1.051 0-1.958-.232-2.72-.696a4.672 4.672 0 0 1-1.755-1.96c-.407-.843-.61-1.823-.61-2.94 0-1.118.203-2.103.61-2.955.413-.857.985-1.524 1.72-2.003.738-.483 1.6-.724 2.584-.724.569 0 1.13.095 1.684.284a4.17 4.17 0 0 1 1.513.923c.454.422.816.98 1.086 1.676.27.696.405 1.553.405 2.571v.71h-8.41V8.666h6.706c0-.616-.124-1.165-.37-1.648a2.782 2.782 0 0 0-1.037-1.143c-.445-.28-.97-.42-1.576-.42-.668 0-1.246.166-1.733.498a3.27 3.27 0 0 0-1.115 1.278 3.756 3.756 0 0 0-.391 1.69v.966c0 .824.142 1.523.426 2.096a3.073 3.073 0 0 0 1.2 1.3c.512.293 1.106.44 1.783.44.44 0 .838-.062 1.193-.185.36-.128.67-.317.93-.568a2.58 2.58 0 0 0 .604-.952l1.62.455a3.591 3.591 0 0 1-.86 1.449 4.19 4.19 0 0 1-1.491.965c-.592.228-1.257.341-1.996.341ZM28.226.455V15H26.55V.455h1.676ZM31.296 15V4.09h1.676V15h-1.676Zm.852-12.727c-.327 0-.608-.112-.845-.334a1.072 1.072 0 0 1-.348-.803c0-.312.116-.58.348-.802C31.54.11 31.82 0 32.148 0c.327 0 .606.111.838.334.237.222.355.49.355.802 0 .313-.118.58-.355.803a1.167 1.167 0 0 1-.838.334ZM44.962 4.09 40.928 15h-1.704L35.19 4.09h1.818l3.011 8.694h.114l3.011-8.693h1.818Zm6.396 11.136c-1.051 0-1.958-.232-2.72-.696a4.672 4.672 0 0 1-1.755-1.96c-.407-.843-.61-1.823-.61-2.94 0-1.118.203-2.103.61-2.955.412-.857.985-1.524 1.72-2.003.738-.483 1.6-.724 2.584-.724.569 0 1.13.095 1.684.284a4.17 4.17 0 0 1 1.512.923c.455.422.817.98 1.087 1.676s.405 1.553.405 2.571v.71h-8.41V8.666h6.705c0-.616-.123-1.165-.369-1.648a2.782 2.782 0 0 0-1.037-1.143c-.445-.28-.97-.42-1.577-.42-.667 0-1.245.166-1.732.498A3.27 3.27 0 0 0 48.34 7.23a3.756 3.756 0 0 0-.391 1.69v.966c0 .824.142 1.523.426 2.096a3.073 3.073 0 0 0 1.2 1.3c.512.293 1.106.44 1.783.44.44 0 .838-.062 1.193-.185.36-.128.67-.317.93-.568a2.58 2.58 0 0 0 .604-.952l1.62.455a3.591 3.591 0 0 1-.86 1.449 4.19 4.19 0 0 1-1.491.965c-.592.228-1.257.341-1.996.341ZM58.425 15V4.09h1.619v1.65h.114c.198-.54.558-.978 1.08-1.314a3.178 3.178 0 0 1 1.76-.505 17.8 17.8 0 0 1 .882.028v1.705a4.984 4.984 0 0 0-.391-.064 3.842 3.842 0 0 0-.633-.05c-.53 0-1.003.112-1.42.335-.412.217-.739.52-.98.909a2.45 2.45 0 0 0-.355 1.314V15h-1.676Zm8.853 4.09c-.284 0-.538-.023-.76-.07a1.998 1.998 0 0 1-.462-.128l.426-1.477c.407.104.767.142 1.08.113.312-.028.59-.168.83-.419.247-.246.472-.646.675-1.2l.313-.852L65.346 4.09h1.818l3.011 8.693h.114L73.3 4.091h1.819l-4.631 12.5c-.208.563-.466 1.03-.774 1.4a2.902 2.902 0 0 1-1.073.83c-.402.18-.857.27-1.363.27Z"/>
</svg>